<svg xmlns="http://www.w3.org/2000/svg" width="27.959" height="17.475" viewBox="0 0 27.959 17.475">
  <g id="behance-network" transform="translate(0 -4.5)">
    <path id="Path_4" data-name="Path 4" d="M14.4,16.67a4.135,4.135,0,0,0-3.14-4.341,3.671,3.671,0,0,0,2.349-3.581c0-3.416-2.554-4.249-5.5-4.249H0V21.65H8.339c3.127,0,6.064-1.495,6.064-4.979ZM3.782,7.428H7.33c1.364,0,2.592.382,2.592,1.959,0,1.456-.955,2.042-2.307,2.042H3.782Zm0,11.31V14.014H7.9c1.665,0,2.718.692,2.718,2.449,0,1.732-1.257,2.274-2.8,2.274Z" fill="#646464"/>
    <path id="Path_5" data-name="Path 5" d="M19.7,21.354a5.552,5.552,0,0,0,5.83-4.176h-3.02a2.834,2.834,0,0,1-2.7,1.62c-2,0-3.058-1.171-3.058-3.161h8.985c.015-.2.029-.419.029-.637,0-3.673-2.155-6.736-6.063-6.736a6.249,6.249,0,0,0-6.374,6.572C13.324,18.7,15.766,21.354,19.7,21.354Zm-.107-10.515a2.546,2.546,0,0,1,2.727,2.653H16.751a2.671,2.671,0,0,1,2.84-2.653Z" transform="translate(2.198 0.621)" fill="#646464"/>
    <path id="Path_6" data-name="Path 6" d="M15.667,5.273h6.976V6.962H15.667Z" transform="translate(2.585 0.128)" fill="#646464"/>
  </g>
</svg>
