<svg xmlns="http://www.w3.org/2000/svg" width="103.048" height="100.536" viewBox="0 0 103.048 100.536">
  <g id="Design" transform="translate(-20.6 -31.4)">
    <path id="Path_219" data-name="Path 219" d="M155.163,146.3a55.364,55.364,0,0,0-5.8.331,5.03,5.03,0,1,1-4.826.727,41.644,41.644,0,0,0-19.261,9.035,5.018,5.018,0,1,1-5.267,5.752,27.333,27.333,0,0,0-5.113,15.911c0,12.033,6.9,21.883,17.806,27.283a60.24,60.24,0,0,0,12.363,1.3h5.025c6.942,0,10.049-4.782,10.049-9.542a9.22,9.22,0,0,0-6.193-8.881l-5.553-1.983a5.025,5.025,0,0,1,1.675-9.763c3.107,0,6.215,1.851,9.807,3.989,4.76,2.843,10.181,6.06,17.366,6.06,9.1,0,15.823-5.289,17.608-13.311C192.142,157.583,175.988,146.3,155.163,146.3Zm-27.657,40.219a2.512,2.512,0,1,1,2.512-2.512A2.511,2.511,0,0,1,127.506,186.519Zm42.753-20.1a5.025,5.025,0,1,1,5.025-5.025A5.022,5.022,0,0,1,170.259,166.42Z" transform="translate(-73.518 -89.579)" fill="#f69513"/>
    <path id="Path_220" data-name="Path 220" d="M68.02,130.007a5.642,5.642,0,1,1,5.642-5.642A5.653,5.653,0,0,1,68.02,130.007Zm0-7.757a2.116,2.116,0,1,0,2.116,2.116A2.116,2.116,0,0,0,68.02,122.25Zm42.753-11.966a8.551,8.551,0,1,1,8.551-8.551A8.559,8.559,0,0,1,110.773,110.283Zm0-13.575a5.025,5.025,0,1,0,5.025,5.025A5.022,5.022,0,0,0,110.773,96.708ZM65.508,110.371a8.639,8.639,0,1,1,8.639-8.639A8.653,8.653,0,0,1,65.508,110.371Zm0-13.729a5.113,5.113,0,1,0,5.113,5.113A5.116,5.116,0,0,0,65.508,96.642Zm22.633,3.68a8.639,8.639,0,1,1,8.639-8.639A8.653,8.653,0,0,1,88.141,100.322Zm0-13.752a5.113,5.113,0,1,0,5.113,5.113A5.116,5.116,0,0,0,88.141,86.571Zm2.512,62.19H85.628a56.9,56.9,0,0,1-24.2-5.113,1.769,1.769,0,0,1,1.521-3.2,53.37,53.37,0,0,0,22.7,4.782h5.025c6.126,0,8.286-4.187,8.286-7.779a7.5,7.5,0,0,0-5.025-7.228l-5.553-1.983a6.784,6.784,0,0,1,2.27-13.179c3.57,0,6.876,1.961,10.71,4.231,4.584,2.733,9.763,5.818,16.484,5.818,9.608,0,16.308-6.523,16.308-15.845,0-20.5-19.79-35.965-46.015-35.965-12.892,0-24.7,3.768-33.233,10.6a1.755,1.755,0,0,1-2.2-2.733C61.85,73.833,74.433,69.8,88.141,69.8c28.252,0,49.541,16.969,49.541,39.491a19.228,19.228,0,0,1-5.576,13.95,20.238,20.238,0,0,1-14.258,5.421c-7.691,0-13.311-3.35-18.269-6.3-3.394-2.005-6.3-3.746-8.9-3.746a3.254,3.254,0,0,0-3.262,3.262,3.292,3.292,0,0,0,2.16,3.085l5.553,1.983a10.952,10.952,0,0,1,7.361,10.556C102.465,142.9,98.763,148.761,90.653,148.761ZM52.836,137.83a1.754,1.754,0,0,1-1.146-.419,36.464,36.464,0,0,1-13.09-28.12,34.585,34.585,0,0,1,8.683-22.9,1.765,1.765,0,0,1,2.667,2.314,31.22,31.22,0,0,0-7.823,20.605,33.02,33.02,0,0,0,11.856,25.453,1.755,1.755,0,0,1,.2,2.49A1.833,1.833,0,0,1,52.836,137.83Z" transform="translate(-14.033 -29.938)"/>
    <g id="Group_33" data-name="Group 33" transform="translate(24.875 33.78)">
      <path id="Path_221" data-name="Path 221" d="M52.539,42.7v4.8H40V42.7Z" transform="translate(-40 -42.59)" fill="#f69513"/>
      <path id="Path_222" data-name="Path 222" d="M469.4,62.959h-4.8V42.2h4.8Z" transform="translate(-371.028 -42.2)" fill="#f69513"/>
      <path id="Path_223" data-name="Path 223" d="M334.8,470.4v-4.8h12.539v4.8Z" transform="translate(-269.833 -372.293)" fill="#f69513"/>
    </g>
    <path id="Path_224" data-name="Path 224" d="M99.1,33.78a2.38,2.38,0,1,1-2.38-2.38A2.384,2.384,0,0,1,99.1,33.78Zm12.363,76.6h-3.482V106.9a1.763,1.763,0,0,0-3.526,0v3.482h-3.482a1.763,1.763,0,0,0,0,3.526h3.482v3.482a1.763,1.763,0,1,0,3.526,0v-3.482h3.482a1.763,1.763,0,0,0,0-3.526Zm-82.509,15.4h-.859v-.859a1.763,1.763,0,1,0-3.526,0v.859h-.859a1.763,1.763,0,0,0,0,3.526h.859v.859a1.763,1.763,0,1,0,3.526,0v-.859h.859a1.763,1.763,0,0,0,0-3.526ZM115.56,39.025H114.7v-.859a1.763,1.763,0,1,0-3.526,0v.859h-.859a1.763,1.763,0,0,0,0,3.526h.859v.859a1.763,1.763,0,1,0,3.526,0v-.859h.859a1.763,1.763,0,1,0,0-3.526ZM49.007,50.991H24.1a1.763,1.763,0,1,0,0,3.526h24.9a1.763,1.763,0,1,0,0-3.526Zm-1.741,54.147h-24.9a1.763,1.763,0,1,0,0,3.526h24.9a1.763,1.763,0,1,0,0-3.526Z"/>
  </g>
</svg>
