<svg xmlns="http://www.w3.org/2000/svg" width="100.145" height="100.536" viewBox="0 0 100.145 100.536">
  <g id="Development" transform="translate(-33 -32.8)">
    <path id="Path_225" data-name="Path 225" d="M164.222,55.3l-26.5,26.5a1.577,1.577,0,0,0,1.108,2.694h20.681a11.542,11.542,0,0,1,11.535,11.535V130.25a1.914,1.914,0,0,0,1.912,1.912h3.65a1.891,1.891,0,0,0,1.89-1.89V94.732a1.891,1.891,0,0,1,1.89-1.89h19.464a1.9,1.9,0,0,0,1.347-3.237l-34.3-34.3A1.888,1.888,0,0,0,164.222,55.3Z" transform="translate(-81.606 -17.182)" fill="#f69513"/>
    <path id="Path_226" data-name="Path 226" d="M130.173,131.705H124.59a1.891,1.891,0,0,1-1.89-1.89V94.732a1.891,1.891,0,0,0-1.89-1.89H101.368a1.9,1.9,0,0,1-1.347-3.237l34.3-34.3a1.888,1.888,0,0,1,2.672,0l34.3,34.3a1.9,1.9,0,0,1-1.347,3.237H150.484a1.891,1.891,0,0,0-1.89,1.89v42.8" transform="translate(-52.032 -17.182)" fill="none" stroke="#000" stroke-linecap="round" stroke-linejoin="round" stroke-miterlimit="10" stroke-width="3.5"/>
    <g id="Group_34" data-name="Group 34" transform="translate(33 34.755)">
      <path id="Path_227" data-name="Path 227" d="M33,450.677V442.9h7.777v7.777Z" transform="translate(-33 -355.768)" fill="#f69513"/>
      <path id="Path_228" data-name="Path 228" d="M48.973,137.1v-8.537h8.1V137.1Zm6.582-95.3H35.7V64.088Z" transform="translate(-35.113 -41.8)" fill="#f69513"/>
    </g>
    <path id="Path_229" data-name="Path 229" d="M98.118,105.443v24.5a1.738,1.738,0,0,1-3.476,0v-24.5a1.738,1.738,0,0,1,3.476,0ZM75.156,93.191a4.529,4.529,0,0,1-4.518-4.518,1.738,1.738,0,0,0-3.476,0,8,8,0,0,0,7.994,7.994,1.738,1.738,0,1,0,0-3.476ZM64.294,86.956a1.743,1.743,0,0,0-1.738,1.738,4.529,4.529,0,0,1-4.518,4.518,1.738,1.738,0,1,0,0,3.476,8,8,0,0,0,7.994-7.994A1.743,1.743,0,0,0,64.294,86.956ZM58.06,97.818a1.738,1.738,0,1,0,0,3.476,4.529,4.529,0,0,1,4.518,4.518,1.738,1.738,0,0,0,3.476,0A8.029,8.029,0,0,0,58.06,97.818Zm17.1,0a8,8,0,0,0-7.994,7.994,1.738,1.738,0,0,0,3.476,0,4.529,4.529,0,0,1,4.518-4.518,1.738,1.738,0,1,0,0-3.476Zm63.736-63.063a1.955,1.955,0,1,1,1.955,1.955A1.961,1.961,0,0,1,138.892,34.755Zm-6.517,0a1.955,1.955,0,1,1,1.955,1.955A1.961,1.961,0,0,1,132.375,34.755Zm-6.517,0a1.955,1.955,0,1,1,1.955,1.955A1.961,1.961,0,0,1,125.858,34.755Zm7.082,7.8a1.994,1.994,0,0,1,0-2.781,1.966,1.966,0,0,1,2.781,2.781h0a1.937,1.937,0,0,1-1.39.565A2.031,2.031,0,0,1,132.94,42.554Zm9.515-3.02a1.98,1.98,0,0,1,0,2.781h0a1.937,1.937,0,0,1-1.39.565,2.031,2.031,0,0,1-1.39-.565,1.994,1.994,0,0,1,0-2.781A1.98,1.98,0,0,1,142.455,39.534Zm4.041,3.02a1.994,1.994,0,0,1,0-2.781,1.98,1.98,0,0,1,2.781,0,1.955,1.955,0,0,1-1.39,3.345A2.031,2.031,0,0,1,146.5,42.554Zm-2.433,23.613V107.9a1.738,1.738,0,0,0,3.476,0V66.167a1.738,1.738,0,1,0-3.476,0Zm5.148,63.693h-36a1.738,1.738,0,1,0,0,3.476h36a1.738,1.738,0,1,0,0-3.476Zm-3.563-71.4a1.738,1.738,0,0,0,0,3.476,5.735,5.735,0,1,0,0-11.47,1.738,1.738,0,0,0,0,3.476,2.259,2.259,0,1,1,0,4.518Z" transform="translate(-18.238)"/>
  </g>
</svg>
