<svg xmlns="http://www.w3.org/2000/svg" width="19.364" height="19.386" viewBox="0 0 19.364 19.386">
  <path id="dribbble" d="M13.208,18.712l.048-.017C23.12,14.776,20.391,0,9.691,0a9.687,9.687,0,1,0,3.516,18.712ZM4.265,16.2a12.484,12.484,0,0,1,6.715-5.545,20.411,20.411,0,0,1,1.407,7.071A8.426,8.426,0,0,1,4.265,16.2Zm9.313,1.02A21.745,21.745,0,0,0,12.2,10.382a10.976,10.976,0,0,1,5.835.8A8.5,8.5,0,0,1,13.578,17.22Zm4.581-7.293a11.751,11.751,0,0,0-6.428-.674c-.287-.646-.588-1.267-.907-1.839A16.153,16.153,0,0,0,16.1,4.159,8.371,8.371,0,0,1,18.159,9.926ZM15.243,3.3a15.546,15.546,0,0,1-5.056,3.045A22.663,22.663,0,0,0,6.475,1.849,8.43,8.43,0,0,1,15.243,3.3ZM5.316,2.441A21.319,21.319,0,0,1,8.989,6.768a26.664,26.664,0,0,1-7.6,1.19A8.5,8.5,0,0,1,5.316,2.441ZM1.237,9.174A27.887,27.887,0,0,0,9.644,7.843c.3.532.592,1.112.869,1.715A14.084,14.084,0,0,0,3.384,15.34,8.37,8.37,0,0,1,1.237,9.174Z" fill="#646464"/>
</svg>
