<svg id="logo" xmlns="http://www.w3.org/2000/svg" width="19.386" height="19.386" viewBox="0 0 19.386 19.386">
  <path id="Path_1" data-name="Path 1" d="M14.036,0H5.35A5.356,5.356,0,0,0,0,5.35v8.686a5.356,5.356,0,0,0,5.35,5.35h8.686a5.356,5.356,0,0,0,5.35-5.35V5.35A5.356,5.356,0,0,0,14.036,0Zm3.63,14.036a3.634,3.634,0,0,1-3.63,3.63H5.35a3.634,3.634,0,0,1-3.63-3.63V5.35A3.634,3.634,0,0,1,5.35,1.72h8.686a3.634,3.634,0,0,1,3.63,3.63v8.686Z" fill="#646464"/>
  <path id="Path_2" data-name="Path 2" d="M45.963,40.97a5,5,0,1,0,5,5A5,5,0,0,0,45.963,40.97Zm0,8.27a3.275,3.275,0,1,1,3.275-3.275A3.279,3.279,0,0,1,45.963,49.24Z" transform="translate(-36.27 -36.272)" fill="#646464"/>
  <path id="Path_3" data-name="Path 3" d="M120.182,28.251a1.261,1.261,0,1,0,.892.369A1.266,1.266,0,0,0,120.182,28.251Z" transform="translate(-105.285 -25.012)" fill="#646464"/>
</svg>
