<svg xmlns="http://www.w3.org/2000/svg" width="100.306" height="18.748" viewBox="0 0 100.306 18.748">
  <g id="Group_54" data-name="Group 54" transform="translate(-157.098 -140.37)">
    <path id="Path_299" data-name="Path 299" d="M164.244,140.8a5.741,5.741,0,0,1,6.088,6.015c0,3.6-2.57,6.013-6.271,6.013h-3.287v5.539H157.1V140.8Zm-3.47,9.155h2.483c2.107,0,3.337-1.12,3.337-3.127s-1.218-3.117-3.324-3.117h-2.5Z" transform="translate(0 0.467)" fill="#1a1818"/>
    <path id="Path_300" data-name="Path 300" d="M163.93,149.636c0-4.224,2.556-6.794,6.464-6.794s6.464,2.558,6.464,6.794c0,4.3-2.52,6.817-6.464,6.817S163.93,153.921,163.93,149.636Zm9.313.012c0-2.593-1.12-4.091-2.849-4.091s-2.861,1.5-2.861,4.091c0,2.616,1.108,4.089,2.861,4.089S173.243,152.265,173.243,149.649Z" transform="translate(7.364 2.664)" fill="#1a1818"/>
    <path id="Path_301" data-name="Path 301" d="M171.031,143.085h3.435v2.35h.073a3.115,3.115,0,0,1,3.1-2.558,3.623,3.623,0,0,1,1.01.135v3.129a3.632,3.632,0,0,0-1.29-.208,2.6,2.6,0,0,0-2.776,2.911v7.291h-3.555Z" transform="translate(15.017 2.702)" fill="#1a1818"/>
    <path id="Path_302" data-name="Path 302" d="M180.568,141.53v3.007h2.41v2.678h-2.41v6.246c0,1,.486,1.473,1.533,1.473a5.946,5.946,0,0,0,.864-.06v2.616a8.168,8.168,0,0,1-1.693.148c-3.067,0-4.259-1.022-4.259-3.568v-6.855h-1.839v-2.678h1.839V141.53Z" transform="translate(19.482 1.25)" fill="#1a1818"/>
    <path id="Path_303" data-name="Path 303" d="M181.246,148.08h-1.777v-2.618h1.777v-.985c0-2.558,1.205-3.75,4.3-3.75a10.373,10.373,0,0,1,1.814.158v2.35a5.619,5.619,0,0,0-.962-.073c-1.17,0-1.681.511-1.681,1.436v.864h2.593v2.618H184.8v10.372h-3.555Z" transform="translate(24.111 0.385)" fill="#1a1818"/>
    <path id="Path_304" data-name="Path 304" d="M183.734,149.636c0-4.224,2.558-6.794,6.466-6.794s6.464,2.558,6.464,6.794c0,4.3-2.52,6.817-6.464,6.817S183.734,153.921,183.734,149.636Zm9.315.012c0-2.593-1.12-4.091-2.849-4.091s-2.861,1.5-2.861,4.091c0,2.616,1.107,4.089,2.861,4.089S193.049,152.265,193.049,149.649Z" transform="translate(28.708 2.664)" fill="#1a1818"/>
    <path id="Path_305" data-name="Path 305" d="M190.877,140.8h3.555v17.568h-3.555Z" transform="translate(36.407 0.467)" fill="#1a1818"/>
    <path id="Path_306" data-name="Path 306" d="M193.73,142.2a1.852,1.852,0,1,1,1.851,1.824A1.829,1.829,0,0,1,193.73,142.2Zm.085,3.59h3.555v13.051h-3.555Z" transform="translate(39.482)" fill="#1a1818"/>
    <path id="Path_307" data-name="Path 307" d="M196.391,149.636c0-4.224,2.556-6.794,6.464-6.794s6.464,2.558,6.464,6.794c0,4.3-2.52,6.817-6.464,6.817S196.391,153.921,196.391,149.636Zm9.313.012c0-2.593-1.12-4.091-2.849-4.091s-2.861,1.5-2.861,4.091c0,2.616,1.107,4.089,2.861,4.089S205.7,152.265,205.7,149.649Z" transform="translate(42.35 2.664)" fill="#1a1818"/>
    <path id="Path_308" data-name="Path 308" d="M203.486,149.4a1.96,1.96,0,1,1,1.961,1.961A1.944,1.944,0,0,1,203.486,149.4Z" transform="translate(49.997 7.622)" fill="#f6800c"/>
  </g>
</svg>
