<svg xmlns="http://www.w3.org/2000/svg" xmlns:xlink="http://www.w3.org/1999/xlink" width="676.5" height="524.638" viewBox="0 0 676.5 524.638">
  <defs>
    <linearGradient id="linear-gradient" x1="0.499" y1="-0.544" x2="0.5" y2="0.824" gradientUnits="objectBoundingBox">
      <stop offset="0" stop-color="#feff5c"/>
      <stop offset="0.106" stop-color="#feff75"/>
      <stop offset="0.309" stop-color="#feffa1"/>
      <stop offset="0.505" stop-color="#feffc3"/>
      <stop offset="0.69" stop-color="#feffdc"/>
      <stop offset="0.86" stop-color="#feffea"/>
      <stop offset="1" stop-color="ivory"/>
    </linearGradient>
  </defs>
  <g id="Group_12" data-name="Group 12" transform="translate(-4.791 9.224)">
    <rect id="Rectangle_38" data-name="Rectangle 38" width="12.339" height="17.032" rx="6.169" transform="translate(575.628 193.22)" fill="#57a193"/>
    <rect id="Rectangle_39" data-name="Rectangle 39" width="18.017" height="26.952" rx="9.008" transform="translate(582.34 184.02)" fill="#57b893"/>
    <path id="Rectangle_40" data-name="Rectangle 40" d="M5.669,0H408.159a5.669,5.669,0,0,1,5.669,5.669v17.9a0,0,0,0,1,0,0H0a0,0,0,0,1,0,0V5.669A5.669,5.669,0,0,1,5.669,0Z" transform="translate(75.691 51.833)" fill="#cfe6f7"/>
    <circle id="Ellipse_8" data-name="Ellipse 8" cx="3.347" cy="3.347" r="3.347" transform="translate(89.66 59.466)" fill="#fff"/>
    <circle id="Ellipse_9" data-name="Ellipse 9" cx="3.347" cy="3.347" r="3.347" transform="translate(105.425 59.466)" fill="#fff"/>
    <circle id="Ellipse_10" data-name="Ellipse 10" cx="3.347" cy="3.347" r="3.347" transform="translate(121.19 59.466)" fill="#fff"/>
    <path id="Rectangle_41" data-name="Rectangle 41" d="M0,0H413.828a0,0,0,0,1,0,0V226.542A10.456,10.456,0,0,1,403.372,237H10.456A10.456,10.456,0,0,1,0,226.542V0A0,0,0,0,1,0,0Z" transform="translate(75.691 89.706)" fill="#dedfef" opacity="0.37"/>
    <circle id="Ellipse_11" data-name="Ellipse 11" cx="42.582" cy="42.582" r="42.582" transform="translate(116.285 224.947)" fill="#fff"/>
    <path id="Path_7" data-name="Path 7" d="M480.725,375a31.54,31.54,0,0,1-11.411,4.88c-7.919,1.737-17.033,1.2-27.44.428l-40.379.437H379.014c-12.493-.908-23.983,2.68-29.247,11.568q-.9,2.331-2.139,5.055c-14.781,32.713-63.157,105.273-85.944,124.244q-.5.406-.969.786L245,515.848c14.362-32.233,44.229-89.113,75.083-147.546,7.884-16.3,19.749-24.428,33.621-27.929q2.947-.733,6-1.214l30.19-6.242,10.948-2.261,5.238,2.287,83.813-.437a37.673,37.673,0,0,1,2.96,12.79C493.611,358.568,487.666,370.921,480.725,375Z" transform="translate(-30.493 -39.274)" fill="#64a3a9"/>
    <path id="Path_8" data-name="Path 8" d="M461.823,138.862c-1.065,2.445-12.109,7.613-16.4,4.889a3.53,3.53,0,0,1-.794-.69l-1.545-9.508a25.68,25.68,0,0,0-2.794,1.519c-.349.175-.7.332-1.03.471a10.338,10.338,0,0,1-7.3.838,3.51,3.51,0,0,1-2.34-4.13l.262-1.441c-.21-.541-1.1-4.618-1.589-5.806l-4.208-.306c.6-3.99,2.3-8.774,2.855-13.2l-.8-2.541c-.55-4.5.061-8.32-.559-10.119l1.746-1.746.6,1.816,3.187-2.025-.044,2.977a11.436,11.436,0,0,1,6-2.34l2.872.943,3.894-.925c1.039.725,1.432.323,2,1.537.55-1.266,1.825-.664,3.056-1.275l-.087,5.771,2.06,6.356c6.312-3.3,9.8,6.522,4.348,10.695l2.043.271a1.916,1.916,0,0,1,1.659,1.353,3.494,3.494,0,0,1,2.3-1.048A97.089,97.089,0,0,0,461.823,138.862Z" transform="translate(-53.228 -9.598)" fill="#eec5ab"/>
    <path id="Path_9" data-name="Path 9" d="M455.272,118.413a9.47,9.47,0,0,0,2.631-4.976,6.009,6.009,0,0,0-1.652-5.269,4.434,4.434,0,0,0-5.294-.6c-1.748-3.746-2.961-7.689-2.031-12.082-.918.918-1.977.692-2.9,1.611-.808-.256-1.073-.473-2.176-1.906a5.689,5.689,0,0,1-5.447.477,3.487,3.487,0,0,0-1.457-.291,3.625,3.625,0,0,0-1.155.317l-4.689,1.862.045-2.985L427.959,96.6l-.618-1.826c-.182.013-4.255,5.531-2.638.052.9-2.223,1.722-4.481,2.752-6.647,1.039-2.186,2.271-4.407,4.288-5.744,1.585-1.05,3.553-1.162,5.426-1.484a7.073,7.073,0,0,0,3.243-1.04c.385-.234,1.552-.113,1.959-.307a3.481,3.481,0,0,1,2.412-.034,3.17,3.17,0,0,0,1.43.207c.625-.123,1.078-.667,1.665-.918,1.193-.512,2.5.281,3.659.86,2.941,1.465,7.973-.189,9.618,1.778.537.87.414,2.938,1.264,4.144A18.6,18.6,0,0,0,465.5,88.8c.689.659-.179,3.614.41,5.308a3.765,3.765,0,0,0,.78,1.41c.316.327.722.553,1.062.856a4.044,4.044,0,0,1,1.2,3.026,11.155,11.155,0,0,1-.642,3.277c-.649,2.1-.481,2.551-1.709,4.789a7.645,7.645,0,0,1-1.473,2.8,17.277,17.277,0,0,0-2.019,2.9c-.558,1.929-1.214,3.8-1.771,5.725a3.489,3.489,0,0,0-2.285.928c-.818-.1-2.411-1.655-3.8-1.388Z" transform="translate(-53.258 -7.289)" fill="#1a2a32"/>
    <path id="Path_10" data-name="Path 10" d="M429.124,120.092c-.005.316,8.024-.719,7.963-1.138a19.327,19.327,0,0,0-.6-7.413c-.2-.545-9.307,1.372-9.094,2.173A24.257,24.257,0,0,0,429.124,120.092Z" transform="translate(-53.646 -11.447)" fill="none" stroke="#551c00" stroke-miterlimit="10" stroke-width="0.75"/>
    <line id="Line_4" data-name="Line 4" x1="14.815" y2="0.273" transform="translate(382.897 100.014)" fill="none" stroke="#551c00" stroke-miterlimit="10" stroke-width="0.75"/>
    <path id="Path_11" data-name="Path 11" d="M426.724,113.873c-1.393.181-3.759.388-3.827.6-.187.463.832,5.919,1.143,5.706l1.385-.038A47.989,47.989,0,0,0,426.724,113.873Z" transform="translate(-53.074 -11.755)" fill="none" stroke="#551c00" stroke-miterlimit="10" stroke-width="0.75"/>
    <path id="Path_12" data-name="Path 12" d="M520.184,301.01q-.38,5.513-.864,11.027c-27.2-4.522-54.784,3.518-82.346,4.444a46.017,46.017,0,0,1-9.49-.4c-.157-.026-.306-.052-.463-.087-4.7-.943-4.584-1.475-5.02-5.937-.777-7.8-.742-15.776-.934-23.607q-.589-24.175.323-48.341c.236-6.3.559-12.607,1.022-18.9a263.7,263.7,0,0,1,6.26-42.736c1.537-6.347,3.571-12.886,7.037-18.317a28.111,28.111,0,0,1,6.426-7.177,29,29,0,0,1,11.856-5.3,37.4,37.4,0,0,1,4.383-.664,40.59,40.59,0,0,1,5.046-.131c11.961.41,23.616,5.989,32.329,14.309,7.753,7.395,13.34,16.78,17.155,26.838,1.074,2.829,2.008,5.718,2.811,8.635,3.658,13.236,4.741,27.047,5.326,40.772A588.943,588.943,0,0,1,520.184,301.01Z" transform="translate(-52.815 -15.688)" fill="#db6640"/>
    <path id="Path_13" data-name="Path 13" d="M409.569,255.008c.113-.532-54.994,3.087-55.456,3.541-6.273-3.692-12.619-5.938-19.151-4.529-3.24,1.141-5.406,2.832-5.725,5.467,7.592-4.157,14.3-2.307,20.173,2.579,18.386-2.148,38.131-2.908,60-2.965Z" transform="translate(-41.187 -29.492)" fill="#eca699"/>
    <path id="Path_14" data-name="Path 14" d="M366.1,441.49c-.174-6.807-.8-16.268-2.183-27.5-.891-11.487,7.926-20.706,20.08-26.047-9.843.926-18.263,3.7-22.7,11.641l-25.464,46.853,20.008,75.811,15.278-5.457Z" transform="translate(-42.024 -46.547)" fill="#47858d"/>
    <path id="Path_15" data-name="Path 15" d="M517.915,388.026l-134.7,172.783L384.774,398.5c2.371-7.441,8.53-10.546,17.461-10.477Z" transform="translate(-48.04 -46.557)" fill="#39385a"/>
    <path id="Path_16" data-name="Path 16" d="M247.268,544.151s12.332,4.474,11.9,4.8-2.183,6.984-3.383,6.984-14.405-.327-14.405-.327Z" transform="translate(-30.033 -66.377)" fill="none" stroke="#bcbcbc" stroke-miterlimit="10" stroke-width="0.463"/>
    <path id="Path_17" data-name="Path 17" d="M252.586,581.831l-51.838.109c-.229-6.432,3.041-10.652,8.949-13.2l26.519-11.459,14.842.437A124.308,124.308,0,0,1,252.586,581.831Z" transform="translate(-24.874 -68.043)" fill="#3f4247"/>
    <rect id="Rectangle_42" data-name="Rectangle 42" width="676.5" height="1.735" transform="translate(4.791 513.678)" fill="#bcbcbc"/>
    <path id="Path_18" data-name="Path 18" d="M458.933,124.1c-1.436,1.546-4.13,1.088-4.35-.434" transform="translate(-57.099 -12.998)" fill="none" stroke="#921f20" stroke-miterlimit="10" stroke-width="0.414"/>
    <line id="Line_5" data-name="Line 5" y1="3.141" x2="4.233" transform="translate(389.861 120.812)" fill="none" stroke="#921f20" stroke-miterlimit="10" stroke-width="0.414"/>
    <path id="Path_19" data-name="Path 19" d="M447,175.026a238.323,238.323,0,0,0,5.893,39.724" transform="translate(-56.136 -19.518)" fill="none" stroke="#00476a" stroke-miterlimit="10" stroke-width="0.25"/>
    <path id="Path_20" data-name="Path 20" d="M500.551,183.268c3.5,13.265,4.248,19.141,5.776,31.8" transform="translate(-62.934 -20.564)" fill="none" stroke="#00476a" stroke-miterlimit="10" stroke-width="0.25"/>
    <path id="Path_21" data-name="Path 21" d="M455.78,114.858l3.167-.207c1.185,2.3-.273,5.566-1.867,5.457-1.243.285-1.668-.46-1.461-2" transform="translate(-57.224 -11.854)" fill="none" stroke="#921f20" stroke-miterlimit="10" stroke-width="0.5"/>
    <ellipse id="Ellipse_12" data-name="Ellipse 12" cx="1.425" cy="2.708" rx="1.425" ry="2.708" transform="translate(375.987 102.115) rotate(-8.104)" fill="#fff"/>
    <ellipse id="Ellipse_13" data-name="Ellipse 13" cx="0.696" cy="1.323" rx="0.696" ry="1.323" transform="translate(376.451 104.318) rotate(-8.104)" fill="#221f20" stroke="#221f20" stroke-miterlimit="10" stroke-width="0.046"/>
    <path id="Path_22" data-name="Path 22" d="M428.917,111.363a18.841,18.841,0,0,1,9.058-2.837" transform="translate(-53.841 -11.076)" fill="none" stroke="#921f20" stroke-miterlimit="10" stroke-width="0.5"/>
    <path id="Path_23" data-name="Path 23" d="M433.91,132.734c-1.074,1.582-3.488,1.455-3.488,1.455" transform="translate(-54.032 -14.149)" fill="none" stroke="#921f20" stroke-miterlimit="10" stroke-width="0.414"/>
    <rect id="Rectangle_43" data-name="Rectangle 43" width="72.173" height="3.201" transform="translate(257.868 251.471)" fill="#6e7288"/>
    <rect id="Rectangle_44" data-name="Rectangle 44" width="47.385" height="13.451" transform="translate(175.596 241.367)" fill="#6e7288"/>
    <rect id="Rectangle_45" data-name="Rectangle 45" width="7.541" height="16.661" transform="translate(191.799 224.706)" fill="#364691"/>
    <rect id="Rectangle_46" data-name="Rectangle 46" width="17.884" height="115.328" transform="translate(185.455 109.454)" fill="#6e7288"/>
    <rect id="Rectangle_47" data-name="Rectangle 47" width="10.318" height="7.566" transform="translate(175.138 188.785)" fill="#6e7288"/>
    <rect id="Rectangle_48" data-name="Rectangle 48" width="10.088" height="6.878" transform="translate(175.596 206.898)" fill="#6e7288"/>
    <path id="Path_24" data-name="Path 24" d="M197.177,217.606H180.21v58.7h17.655" transform="translate(-22.269 -24.923)" fill="none" stroke="#48549f" stroke-miterlimit="10" stroke-width="1.05"/>
    <line id="Line_6" data-name="Line 6" y1="80.264" transform="translate(245.064 -9.224)" fill="#c6db94" stroke="#6e7288" stroke-miterlimit="10" stroke-width="1"/>
    <path id="Path_25" data-name="Path 25" d="M251.375,86.049l47.4.109-22.3-24.882Z" transform="translate(-31.303 -5.078)" fill="#db6640"/>
    <g id="Group_3" data-name="Group 3" transform="translate(227.116 109.454)">
      <rect id="Rectangle_49" data-name="Rectangle 49" width="64.947" height="40.667" rx="2.828" transform="translate(0 9.635)" fill="#fff"/>
      <circle id="Ellipse_14" data-name="Ellipse 14" cx="9.313" cy="9.313" r="9.313" transform="translate(38.61 19.789)" fill="#f8f8ff"/>
      <rect id="Rectangle_50" data-name="Rectangle 50" width="28.811" height="1.528" rx="0.764" transform="translate(5.943 21.681)" fill="#d4ecf7"/>
      <rect id="Rectangle_51" data-name="Rectangle 51" width="19.023" height="1.528" rx="0.711" transform="translate(15.949 28.665)" fill="#f8f8ff"/>
      <rect id="Rectangle_52" data-name="Rectangle 52" width="28.811" height="1.528" rx="0.764" transform="translate(6.489 36.086)" fill="#f8f8ff"/>
      <path id="Rectangle_53" data-name="Rectangle 53" d="M1.206,0H63.469a1.206,1.206,0,0,1,1.206,1.206V6.824a0,0,0,0,1,0,0H0a0,0,0,0,1,0,0V1.206A1.206,1.206,0,0,1,1.206,0Z" transform="translate(0.196)" fill="#cfe6f7"/>
      <circle id="Ellipse_15" data-name="Ellipse 15" cx="1.117" cy="1.117" r="1.117" transform="translate(2.72 1.853)" fill="#ee5719"/>
      <circle id="Ellipse_16" data-name="Ellipse 16" cx="1.117" cy="1.117" r="1.117" transform="translate(7.98 1.853)" fill="#e9bb2f"/>
      <circle id="Ellipse_17" data-name="Ellipse 17" cx="1.117" cy="1.117" r="1.117" transform="translate(13.241 1.853)" fill="#63c5a0"/>
    </g>
    <rect id="Rectangle_54" data-name="Rectangle 54" width="38.633" height="6.984" transform="translate(568.285 231.465)" fill="#e1e4fd"/>
    <path id="Path_26" data-name="Path 26" d="M654.677,239.694l5.493,19.5H680.4l4.656-19.425Z" transform="translate(-82.5 -27.727)" fill="#d3d7f5"/>
    <path id="Path_27" data-name="Path 27" d="M652.594,232.269v6.111l33.776.164.218-6.33Z" transform="translate(-82.236 -26.778)" fill="#e5e8fe"/>
    <rect id="Rectangle_55" data-name="Rectangle 55" width="43.071" height="7.861" transform="translate(633.573 289.133)" fill="#dbdefb"/>
    <rect id="Rectangle_56" data-name="Rectangle 56" width="21.29" height="4.585" transform="translate(643.726 284.384)" fill="#bcc2f1"/>
    <rect id="Rectangle_57" data-name="Rectangle 57" width="20.471" height="22.436" transform="translate(644.218 261.948)" fill="#d3d7f5"/>
    <path id="Path_28" data-name="Path 28" d="M760.593,307.385l.082-4.616c4.289.178,6.769,1.873,7.861,5.721.7,4.825-.62,8.2-4.054,10.072a8.95,8.95,0,0,1-3.848.9l.041-4.626C765.915,314.632,765.547,307.549,760.593,307.385Z" transform="translate(-95.946 -35.734)" fill="#d3d7f5"/>
    <circle id="Ellipse_18" data-name="Ellipse 18" cx="4.667" cy="4.667" r="4.667" transform="translate(650.236 268.584)" fill="#bcc2f1"/>
    <rect id="Rectangle_58" data-name="Rectangle 58" width="65.479" height="53.03" transform="translate(543.503 260.88)" fill="#e5e8fe"/>
    <rect id="Rectangle_59" data-name="Rectangle 59" width="33.42" height="26.751" transform="translate(630.842 181.627)" fill="#e5e8fe"/>
    <rect id="Rectangle_60" data-name="Rectangle 60" width="33.473" height="26.751" transform="translate(620.329 218.306)" fill="#e5e8fe"/>
    <rect id="Rectangle_61" data-name="Rectangle 61" width="33.473" height="26.751" transform="translate(512.07 139.731)" fill="#e5e8fe"/>
    <g id="Group_4" data-name="Group 4" transform="translate(211.983 165.07)">
      <rect id="Rectangle_62" data-name="Rectangle 62" width="43.834" height="39.838" rx="2.3" fill="#fff"/>
      <circle id="Ellipse_19" data-name="Ellipse 19" cx="6.285" cy="6.285" r="6.285" transform="translate(26.059 12.745)" fill="#f8f8ff"/>
      <rect id="Rectangle_63" data-name="Rectangle 63" width="19.445" height="1.031" rx="0.516" transform="translate(4.011 14.022)" fill="#d4ecf7"/>
      <rect id="Rectangle_64" data-name="Rectangle 64" width="12.839" height="1.031" rx="0.48" transform="translate(10.764 18.736)" fill="#f8f8ff"/>
      <rect id="Rectangle_65" data-name="Rectangle 65" width="19.445" height="1.031" rx="0.516" transform="translate(4.379 23.745)" fill="#f8f8ff"/>
    </g>
    <rect id="Rectangle_66" data-name="Rectangle 66" width="24.339" height="26.114" transform="translate(109.444 113.965)" fill="#dfeefc"/>
    <rect id="Rectangle_67" data-name="Rectangle 67" width="11.747" height="2.113" rx="1.056" transform="translate(112.486 117.007)" fill="#bdc4f7"/>
    <rect id="Rectangle_68" data-name="Rectangle 68" width="18.085" height="1.69" rx="0.845" transform="translate(112.909 122.247)" fill="#bdc4f7"/>
    <rect id="Rectangle_69" data-name="Rectangle 69" width="17.409" height="1.606" rx="0.803" transform="translate(113.5 126.219)" fill="#bdc4f7"/>
    <path id="Path_29" data-name="Path 29" d="M119.452,141.381l4.268.127a111.575,111.575,0,0,0,10.944,11.324A5.473,5.473,0,0,0,138,152.79a45.441,45.441,0,0,0,10.564-11.282l4.352-.127a3.464,3.464,0,0,1,2.155,2.282l.254,19.648c-.537,1.9-1.6,3.052-3.3,3.3l-32.2-.381a4.3,4.3,0,0,1-2.662-2.916l-.253-19.521A3.991,3.991,0,0,1,119.452,141.381Z" transform="translate(-14.234 -15.247)" fill="#d2d6f9"/>
    <path id="Path_30" data-name="Path 30" d="M35.848,537.7,47.3,578.363H89.48l9.71-40.509Z" transform="translate(-3.942 -65.558)" fill="#d3d7f5"/>
    <path id="Path_31" data-name="Path 31" d="M31.5,522.22v12.744l70.436.341.455-13.2Z" transform="translate(-3.391 -63.578)" fill="#e5e8fe"/>
    <path id="Path_32" data-name="Path 32" d="M58.617,460.284c5.8,4,7.754,9.84,6,17.445-1.477,8.16-.168,19.924,1.876,32.638l-31.887-.375,8.065-15.756a10.759,10.759,0,0,0-.188-9.941c-6-7.693-8.284-16.95-7.315-27.574-9.364-5.216-11.186-11.313-7.878-18.007-.563-9.566,8.887-12.762,20.07-10.317,8.082,2.492,12.156,7.792,9.755,17.632C54.383,451.924,54.142,456.938,58.617,460.284Z" transform="translate(-2.663 -51.582)" fill="#e1e4fe"/>
    <path id="Path_33" data-name="Path 33" d="M48.3,442.476c3.269,7.256,3.213,16.025,1.688,25.464-.392,6,.625,10.66,6.19,10.973,6.253.594,7.005,12.8,3.938,33.06l-7.456.141q5.279-11.266,3.518-25.322c-5.3-2.733-7.274-6.85-9.707-11.957-1.562-5.182-1.406-7.315-.422-12.662C49.842,457.248,48.978,451.2,48.3,442.476Z" transform="translate(-5.142 -53.469)" fill="#d7dafd"/>
    <path id="Path_34" data-name="Path 34" d="M65.2,510.654l37.7-.282c4.04-3,5.275-7.247,3.236-12.942-1.312-2.94-2.35-6.388.844-7.878,3.9-2.044,5.578-5.636,2.954-12.239l-1.829-7.878a5.33,5.33,0,0,1,3.939-4.5c4.76-1.008,7.368-4.459,8.019-10.129,3.031-8.981,2.378-15.1.562-20.68-3.086-6.052-8.368-5.1-14.771-.563-2.726,2.251-3.012,6.147-2.673,10.41-.124,4.143-2.078,6.507-5.486,7.457-9.414.078-15.563,3.747-14.771,15.052,2.273,6.555,2.555,12.082-2.673,14.771C68.17,486.9,61.875,495.945,65.2,510.654Z" transform="translate(-7.557 -51.869)" fill="#e1e4fe"/>
    <path id="Path_35" data-name="Path 35" d="M114.416,455.152c-8.1,5.981-13.388,12.206-12.754,18.945-.718,10.87-3.211,20.264-10.691,25.51-4.488,4.408-6.317,8.949-.375,13.881h-10.5c-1.243-6.436.3-11.549,4.127-15.568a33.368,33.368,0,0,0,10.129-9.379c2.708-4.576,4.177-10.642,4.877-17.631C101.3,462.681,107.144,458.209,114.416,455.152Z" transform="translate(-9.505 -55.079)" fill="#d7dafd"/>
    <circle id="Ellipse_20" data-name="Ellipse 20" cx="9.988" cy="9.988" r="9.988" transform="translate(54.267 480.449)" fill="#f0f3fc"/>
    <circle id="Ellipse_21" data-name="Ellipse 21" cx="38.56" cy="38.56" r="38.56" transform="translate(566.057 52.706)" fill="#e5e8fe"/>
    <rect id="Rectangle_70" data-name="Rectangle 70" width="2.554" height="30.899" rx="1.277" transform="translate(603.34 63.686)" fill="#bcc2f1"/>
    <rect id="Rectangle_71" data-name="Rectangle 71" width="2.554" height="21.345" rx="1.216" transform="translate(603.356 94.537) rotate(-90)" fill="#bcc2f1"/>
    <path id="Path_36" data-name="Path 36" d="M373.286,535.942,376.633,547l-11.35,5.82-3.783-12.95Z" transform="translate(-45.282 -65.335)" fill="none" stroke="#bcbcbc" stroke-miterlimit="10" stroke-width="0.25"/>
    <path id="Path_37" data-name="Path 37" d="M344.6,568.689c5.238-6.111,11.252-9.98,18.188-14.26a51.2,51.2,0,0,1,11.35-5.821c2.926,2.059,4.694,6.961,6.257,12.369-15.246,9.943-30.43,19.83-35.213,20.371C340.014,578.413,341.69,573.782,344.6,568.689Z" transform="translate(-42.788 -66.942)" fill="#3f4247"/>
    <path id="Path_38" data-name="Path 38" d="M372.642,546.162l-11.727,2.6L166.127,299.03l8.686-6.768Z" transform="translate(-20.481 -34.401)" fill="#6e7288"/>
    <path id="Path_39" data-name="Path 39" d="M383.042,577.514l123.719-.655c-.655-33.176-32.521-67.225-76.338-60.459Z" transform="translate(-48.017 -62.744)" fill="#6e7288"/>
    <path id="Path_40" data-name="Path 40" d="M248.267,91.276,227.75,108.518l91.889.073L296.358,91.276Z" transform="translate(-28.304 -8.886)" opacity="0.52" fill="url(#linear-gradient)"/>
    <g id="Group_13" data-name="Group 13" transform="translate(128 -169.055)">
      <path id="Path_41" data-name="Path 41" d="M341.257,207.56a9.924,9.924,0,1,0-13.544,9.873c.076,1.173.162,2.5.162,2.5l8.679-.562s-.038-1.4-.1-2.658a9.922,9.922,0,0,0,4.8-9.152" transform="translate(-40.196 -22.469)" fill="#f7a95a"/>
      <path id="Path_42" data-name="Path 42" d="M334.1,220.97s0-.041,0-.122l.018-.36c.018-.316.044-.782.093-1.381s.119-1.333.255-2.178a14.706,14.706,0,0,1,.721-2.814,9.435,9.435,0,0,1,.718-1.534,1.826,1.826,0,0,1,.638-.652,1.023,1.023,0,0,1,.942-.03.674.674,0,0,1,.339.372.692.692,0,0,1-.008.511,1.411,1.411,0,0,1-.723.708,2.711,2.711,0,0,1-2.068-.012,2.748,2.748,0,0,1-1.5-1.562,2.081,2.081,0,0,1-.133-1.139.892.892,0,0,1,.856-.746.642.642,0,0,1,.527.317.9.9,0,0,1,.119.605,1.935,1.935,0,0,1-.633,1.029,2.963,2.963,0,0,1-2.265.82,2.583,2.583,0,0,1-2.008-1.3,1.5,1.5,0,0,1-.144-1.2.761.761,0,0,1,.406-.466.746.746,0,0,1,.613.017.984.984,0,0,1,.446.408,1.559,1.559,0,0,1,.188.561,2.861,2.861,0,0,1-.077,1.142,2.952,2.952,0,0,1-1.289,1.751,3.013,3.013,0,0,1-2.031.415,1.575,1.575,0,0,1-.922-.416.768.768,0,0,1-.116-.95.649.649,0,0,1,.431-.247.942.942,0,0,1,.478.061,1.442,1.442,0,0,1,.651.64c.283.521.517,1.031.751,1.515.921,1.945,1.589,3.554,2.038,4.669.225.557.393.994.506,1.29.053.144.1.256.126.338s.038.116.038.116-.018-.038-.05-.112l-.137-.333-.527-1.281c-.464-1.109-1.143-2.711-2.072-4.649-.235-.481-.476-1-.755-1.5a1.347,1.347,0,0,0-.605-.6.595.595,0,0,0-.681.973,1.475,1.475,0,0,0,.863.381,2.906,2.906,0,0,0,1.956-.4,2.837,2.837,0,0,0,1.234-1.686,2.739,2.739,0,0,0,.073-1.094,1.077,1.077,0,0,0-.566-.877.625.625,0,0,0-.517-.016.637.637,0,0,0-.339.4,1.375,1.375,0,0,0,.137,1.1,2.458,2.458,0,0,0,1.912,1.241,2.84,2.84,0,0,0,2.17-.786,1.827,1.827,0,0,0,.6-.958.783.783,0,0,0-.1-.525.522.522,0,0,0-.43-.261.7.7,0,0,0-.482.192.855.855,0,0,0-.254.461,1.968,1.968,0,0,0,.126,1.072,2.64,2.64,0,0,0,1.439,1.5,2.613,2.613,0,0,0,1.98.019,1.312,1.312,0,0,0,.67-.649.585.585,0,0,0-.279-.755.925.925,0,0,0-.849.025,1.739,1.739,0,0,0-.605.617,9.412,9.412,0,0,0-.717,1.514,14.8,14.8,0,0,0-.734,2.8c-.141.841-.218,1.573-.275,2.17s-.089,1.059-.116,1.38q-.018.231-.029.36c-.007.08-.015.122-.015.122Z" transform="translate(-40.886 -23.909)" fill="#d4ecf7"/>
      <path id="Path_43" data-name="Path 43" d="M336.922,224.114l-7.453.481a.561.561,0,0,1-.073-1.119l7.453-.481a.561.561,0,0,1,.073,1.119Z" transform="translate(-41.127 -25.563)" fill="#6e7288"/>
      <path id="Path_44" data-name="Path 44" d="M336.969,224.832l-7.453.481a.561.561,0,0,0,.073,1.119l.817-.052,1.22,2a.718.718,0,0,0,.66.343l2.663-.172a.721.721,0,0,0,.614-.432l.921-2.127.556-.036a.561.561,0,0,0-.072-1.119Z" transform="translate(-41.142 -25.793)" fill="#6e7288"/>
      <path id="Path_45" data-name="Path 45" d="M324.254,212.134c-.082,0-.241-.131-.445-.393a5.256,5.256,0,0,1-.74-1.41,7.281,7.281,0,0,1-.426-2.348,7.728,7.728,0,0,1,.507-2.907l1.585-2.489a7.317,7.317,0,0,1,1.9-1.447,5.285,5.285,0,0,1,1.5-.542,2.3,2.3,0,0,1,.367-.036c.146,0,.23.026.244.073.055.177-.678.492-1.646,1.233a8.163,8.163,0,0,0-3.195,8.237c.215,1.2.544,1.926.384,2.021a.057.057,0,0,1-.031.008" transform="translate(-40.347 -22.756)" fill="#fff974"/>
      <path id="Path_46" data-name="Path 46" d="M332,200.789c-.549,0-1.012-.139-1.089-.434-.038-.164.066-.346.284-.5a1.846,1.846,0,0,1,.922-.29c.044,0,.087,0,.129,0a1.782,1.782,0,0,1,.821.182c.234.125.36.295.342.461l-1.22.577q-.1.005-.189.005" transform="translate(-41.381 -22.63)" fill="#fff974"/>
      <path id="Path_47" data-name="Path 47" d="M335.853,228.747c-.007.019-.2-.054-.521-.124a4.151,4.151,0,0,0-2.513.235c-.3.129-.479.236-.49.22a1.51,1.51,0,0,1,.453-.3,3.635,3.635,0,0,1,2.569-.241,1.526,1.526,0,0,1,.5.208Z" transform="translate(-41.56 -26.241)" fill="#425660"/>
      <path id="Path_48" data-name="Path 48" d="M336.716,226.178c0,.034-1.344.148-3.005.255s-3.011.167-3.014.134,1.343-.148,3.006-.255,3.01-.167,3.013-.134Z" transform="translate(-41.356 -25.96)" fill="#425660"/>
      <path id="Path_49" data-name="Path 49" d="M336.391,227.223a4.246,4.246,0,0,1-.73.122c-.452.058-1.079.124-1.772.179s-1.324.087-1.78.1a4.217,4.217,0,0,1-.739-.007,4.836,4.836,0,0,1,.735-.08l1.775-.136,1.773-.143a4.8,4.8,0,0,1,.738-.037Z" transform="translate(-41.44 -26.092)" fill="#425660"/>
    </g>
    <path id="Path_50" data-name="Path 50" d="M744.827,215.145a2.253,2.253,0,1,1-2.277-2.23,2.255,2.255,0,0,1,2.277,2.23" transform="translate(-93.372 -24.328)" fill="#cf6c6d"/>
    <g id="Group_6" data-name="Group 6" transform="translate(632.127 182.557)">
      <g id="Group_5" data-name="Group 5">
        <path id="Path_51" data-name="Path 51" d="M754.245,206.156l-.118,24.61-30.783-.148.118-24.61,30.783.148" transform="translate(-723.344 -206.008)" fill="#e4e4e3"/>
        <path id="Path_52" data-name="Path 52" d="M724.568,229.3l28.62.137.1-21.511-28.62-.137-.1,21.511" transform="translate(-723.499 -206.234)" fill="#e5e8fe"/>
        <path id="Path_53" data-name="Path 53" d="M753.188,230.628l-28.62-.137,10.06-13.323,6.152,8.4L745,221.111l8.186,9.517" transform="translate(-723.499 -207.425)" fill="#bcc2f1"/>
      </g>
      <path id="Path_54" data-name="Path 54" d="M744.432,215.644a2.346,2.346,0,0,1-.335.029,2.254,2.254,0,0,1-2.248-1.894,2.131,2.131,0,0,1-.029-.336,2.254,2.254,0,0,1,1.895-2.249,2.346,2.346,0,0,1,.335-.029,2.254,2.254,0,0,1,.382,4.479" transform="translate(-725.689 -206.663)" fill="#bcc2f1"/>
    </g>
    <g id="Group_8" data-name="Group 8" transform="translate(621.65 219.553)">
      <g id="Group_7" data-name="Group 7">
        <path id="Path_55" data-name="Path 55" d="M742.245,248.531l-.118,24.61-30.783-.148.118-24.61,30.783.148" transform="translate(-711.344 -248.383)" fill="#e4e4e3"/>
        <path id="Path_56" data-name="Path 56" d="M712.568,271.675l28.62.138.1-21.511-28.62-.137-.1,21.511" transform="translate(-711.499 -248.609)" fill="#e5e8fe"/>
        <path id="Path_57" data-name="Path 57" d="M741.188,273l-28.62-.138,10.06-13.323,6.152,8.4L733,263.486,741.188,273" transform="translate(-711.499 -249.8)" fill="#bcc2f1"/>
      </g>
      <path id="Path_58" data-name="Path 58" d="M732.432,258.019a2.35,2.35,0,0,1-.335.029,2.254,2.254,0,0,1-2.248-1.894,2.131,2.131,0,0,1-.029-.336,2.254,2.254,0,0,1,1.895-2.249,2.347,2.347,0,0,1,.334-.029,2.254,2.254,0,0,1,.383,4.479" transform="translate(-713.689 -249.038)" fill="#bcc2f1"/>
    </g>
    <g id="Group_10" data-name="Group 10" transform="translate(547.15 264.37)">
      <g id="Group_9" data-name="Group 9">
        <path id="Path_59" data-name="Path 59" d="M683.332,299.991l-.22,45.652-57.1-.274.219-45.652,57.1.274" transform="translate(-626.01 -299.717)" fill="#e4e4e3"/>
        <path id="Path_60" data-name="Path 60" d="M628.281,342.923l53.091.255.191-39.9-53.089-.255-.193,39.9" transform="translate(-626.299 -300.136)" fill="#e5e8fe"/>
        <path id="Path_61" data-name="Path 61" d="M681.372,345.387l-53.091-.255,18.662-24.715,11.412,15.574,7.831-8.259,15.186,17.655" transform="translate(-626.299 -302.344)" fill="#bcc2f1"/>
      </g>
      <path id="Path_62" data-name="Path 62" d="M665.13,317.591a4.3,4.3,0,0,1-.622.052,4.175,4.175,0,1,1,.622-.052" transform="translate(-630.361 -300.931)" fill="#bcc2f1"/>
    </g>
    <g id="Group_11" data-name="Group 11" transform="translate(282.107 149.774)">
      <path id="Path_63" data-name="Path 63" d="M589.932,118.462a1.786,1.786,0,0,1,.8-.093l.268.006-.087.087c.012-.309.047-.529.087-.529s.075.22.087.529l0,.085-.091,0-.268.005a1.8,1.8,0,0,1-.8-.092Z" transform="translate(-551.611 -78.801)" fill="#64a3a9"/>
      <path id="Path_64" data-name="Path 64" d="M585.882,118.854c0-.052.239-.093.533-.093s.533.042.533.093-.238.092-.533.092-.533-.041-.533-.092Z" transform="translate(-549.693 -79.193)" fill="#64a3a9"/>
      <path id="Path_65" data-name="Path 65" d="M581.832,118.854c0-.052.239-.093.533-.093s.533.042.533.093-.238.092-.533.092-.533-.041-.533-.092Z" transform="translate(-547.776 -79.193)" fill="#64a3a9"/>
      <path id="Path_66" data-name="Path 66" d="M577.782,118.854c0-.052.239-.093.533-.093s.533.042.533.093-.238.092-.533.092-.533-.041-.533-.092Z" transform="translate(-545.858 -79.193)" fill="#64a3a9"/>
      <path id="Path_67" data-name="Path 67" d="M573.732,118.854c0-.052.239-.093.533-.093s.533.042.533.093-.238.092-.533.092-.533-.041-.533-.092Z" transform="translate(-543.941 -79.193)" fill="#64a3a9"/>
      <path id="Path_68" data-name="Path 68" d="M569.682,118.854c0-.052.239-.093.533-.093s.533.042.533.093-.238.092-.533.092-.533-.041-.533-.092Z" transform="translate(-542.023 -79.193)" fill="#64a3a9"/>
      <path id="Path_69" data-name="Path 69" d="M565.632,118.854c0-.052.239-.093.533-.093s.533.042.533.093-.239.092-.533.092-.533-.041-.533-.092Z" transform="translate(-540.105 -79.193)" fill="#64a3a9"/>
      <path id="Path_70" data-name="Path 70" d="M561.583,118.854c0-.052.238-.093.533-.093s.533.042.533.093-.239.092-.533.092-.533-.041-.533-.092Z" transform="translate(-538.188 -79.193)" fill="#64a3a9"/>
      <path id="Path_71" data-name="Path 71" d="M557.532,118.854c0-.052.239-.093.533-.093s.533.042.533.093-.238.092-.533.092-.533-.041-.533-.092Z" transform="translate(-536.27 -79.193)" fill="#64a3a9"/>
      <path id="Path_72" data-name="Path 72" d="M553.482,118.854c0-.052.239-.093.533-.093s.533.042.533.093-.239.092-.533.092-.533-.041-.533-.092Z" transform="translate(-534.352 -79.193)" fill="#64a3a9"/>
      <path id="Path_73" data-name="Path 73" d="M549.433,118.854c0-.052.239-.093.533-.093s.533.042.533.093-.238.092-.533.092-.533-.041-.533-.092Z" transform="translate(-532.435 -79.193)" fill="#64a3a9"/>
      <path id="Path_74" data-name="Path 74" d="M545.383,118.854c0-.052.239-.093.533-.093s.533.042.533.093-.239.092-.533.092-.533-.041-.533-.092Z" transform="translate(-530.517 -79.193)" fill="#64a3a9"/>
      <path id="Path_75" data-name="Path 75" d="M541.333,118.854c0-.052.239-.093.533-.093s.533.042.533.093-.239.092-.533.092-.533-.041-.533-.092Z" transform="translate(-528.6 -79.193)" fill="#64a3a9"/>
      <path id="Path_76" data-name="Path 76" d="M537.283,118.854c0-.052.239-.093.533-.093s.533.042.533.093-.239.092-.533.092-.533-.041-.533-.092Z" transform="translate(-526.682 -79.193)" fill="#64a3a9"/>
      <path id="Path_77" data-name="Path 77" d="M533.233,118.854c0-.052.239-.093.533-.093s.533.042.533.093-.239.092-.533.092-.533-.041-.533-.092Z" transform="translate(-524.764 -79.193)" fill="#64a3a9"/>
      <path id="Path_78" data-name="Path 78" d="M529.183,118.854c0-.052.239-.093.533-.093s.533.042.533.093-.238.092-.533.092-.533-.041-.533-.092Z" transform="translate(-522.847 -79.193)" fill="#64a3a9"/>
      <path id="Path_79" data-name="Path 79" d="M525.133,118.854c0-.052.239-.093.533-.093s.533.042.533.093-.239.092-.533.092-.533-.041-.533-.092Z" transform="translate(-520.929 -79.193)" fill="#64a3a9"/>
      <path id="Path_80" data-name="Path 80" d="M521.083,118.854c0-.052.238-.093.533-.093s.533.042.533.093-.239.092-.533.092-.533-.041-.533-.092Z" transform="translate(-519.011 -79.193)" fill="#64a3a9"/>
      <path id="Path_81" data-name="Path 81" d="M519.737,116.151c.051,0,.092.239.092.533s-.041.533-.092.533-.093-.239-.093-.533.042-.533.093-.533Z" transform="translate(-518.33 -77.957)" fill="#64a3a9"/>
      <path id="Path_82" data-name="Path 82" d="M519.737,112.1c.051,0,.092.239.092.533s-.041.533-.092.533-.093-.239-.093-.533.042-.533.093-.533Z" transform="translate(-518.33 -76.04)" fill="#64a3a9"/>
      <path id="Path_83" data-name="Path 83" d="M519.737,108.052c.051,0,.092.238.092.533s-.041.533-.092.533-.093-.239-.093-.533.042-.533.093-.533Z" transform="translate(-518.33 -74.123)" fill="#64a3a9"/>
      <path id="Path_84" data-name="Path 84" d="M519.737,104c.051,0,.092.238.092.533s-.041.533-.092.533-.093-.238-.093-.533.042-.533.093-.533Z" transform="translate(-518.33 -72.205)" fill="#64a3a9"/>
      <path id="Path_85" data-name="Path 85" d="M519.737,99.951c.051,0,.092.239.092.533s-.041.533-.092.533-.093-.239-.093-.533.042-.533.093-.533Z" transform="translate(-518.33 -70.287)" fill="#64a3a9"/>
      <path id="Path_86" data-name="Path 86" d="M519.737,95.9c.051,0,.092.238.092.533s-.041.533-.092.533-.093-.239-.093-.533.042-.533.093-.533Z" transform="translate(-518.33 -68.37)" fill="#64a3a9"/>
      <path id="Path_87" data-name="Path 87" d="M519.737,91.852c.051,0,.092.239.092.533s-.041.533-.092.533-.093-.239-.093-.533.042-.533.093-.533Z" transform="translate(-518.33 -66.452)" fill="#64a3a9"/>
      <path id="Path_88" data-name="Path 88" d="M519.737,87.8c.051,0,.092.239.092.533s-.041.533-.092.533-.093-.239-.093-.533.042-.533.093-.533Z" transform="translate(-518.33 -64.534)" fill="#64a3a9"/>
      <path id="Path_89" data-name="Path 89" d="M519.737,83.752c.051,0,.092.239.092.533s-.041.533-.092.533-.093-.239-.093-.533.042-.533.093-.533Z" transform="translate(-518.33 -62.617)" fill="#64a3a9"/>
      <path id="Path_90" data-name="Path 90" d="M519.737,79.7c.051,0,.092.239.092.533s-.041.533-.092.533-.093-.239-.093-.533.042-.533.093-.533Z" transform="translate(-518.33 -60.699)" fill="#64a3a9"/>
      <path id="Path_91" data-name="Path 91" d="M519.737,75.652c.051,0,.092.239.092.533s-.041.533-.092.533-.093-.239-.093-.533.042-.533.093-.533Z" transform="translate(-518.33 -58.781)" fill="#64a3a9"/>
      <path id="Path_92" data-name="Path 92" d="M519.737,71.6c.051,0,.092.239.092.533s-.041.533-.092.533-.093-.238-.093-.533.042-.533.093-.533Z" transform="translate(-518.33 -56.864)" fill="#64a3a9"/>
      <path id="Path_93" data-name="Path 93" d="M519.737,67.552c.051,0,.092.239.092.533s-.041.533-.092.533-.093-.239-.093-.533.042-.533.093-.533Z" transform="translate(-518.33 -54.946)" fill="#64a3a9"/>
      <path id="Path_94" data-name="Path 94" d="M519.737,63.5c.051,0,.092.239.092.533s-.041.533-.092.533-.093-.239-.093-.533.042-.533.093-.533Z" transform="translate(-518.33 -53.028)" fill="#64a3a9"/>
      <path id="Path_95" data-name="Path 95" d="M519.737,59.453c.051,0,.092.239.092.533s-.041.533-.092.533-.093-.239-.093-.533.042-.533.093-.533Z" transform="translate(-518.33 -51.111)" fill="#64a3a9"/>
      <path id="Path_96" data-name="Path 96" d="M519.737,55.4c.051,0,.092.239.092.533s-.041.533-.092.533-.093-.239-.093-.533.042-.533.093-.533Z" transform="translate(-518.33 -49.193)" fill="#64a3a9"/>
      <path id="Path_97" data-name="Path 97" d="M519.737,51.352c.051,0,.092.239.092.533s-.041.533-.092.533-.093-.239-.093-.533.042-.533.093-.533Z" transform="translate(-518.33 -47.275)" fill="#64a3a9"/>
      <path id="Path_98" data-name="Path 98" d="M519.737,47.3c.051,0,.092.239.092.533s-.041.533-.092.533-.093-.239-.093-.533.042-.533.093-.533Z" transform="translate(-518.33 -45.358)" fill="#64a3a9"/>
      <path id="Path_99" data-name="Path 99" d="M522.408,46.717c0,.051-.238.092-.533.092s-.533-.041-.533-.092.239-.093.533-.093.533.042.533.093Z" transform="translate(-519.134 -45.037)" fill="#64a3a9"/>
      <path id="Path_100" data-name="Path 100" d="M526.458,46.717c0,.051-.238.092-.533.092s-.533-.041-.533-.092.238-.093.533-.093.533.042.533.093Z" transform="translate(-521.052 -45.037)" fill="#64a3a9"/>
      <path id="Path_101" data-name="Path 101" d="M530.508,46.717c0,.051-.239.092-.533.092s-.533-.041-.533-.092.239-.093.533-.093.533.042.533.093Z" transform="translate(-522.969 -45.037)" fill="#64a3a9"/>
      <path id="Path_102" data-name="Path 102" d="M534.558,46.717c0,.051-.238.092-.533.092s-.533-.041-.533-.092.239-.093.533-.093.533.042.533.093Z" transform="translate(-524.887 -45.037)" fill="#64a3a9"/>
      <path id="Path_103" data-name="Path 103" d="M538.608,46.717c0,.051-.239.092-.533.092s-.533-.041-.533-.092.239-.093.533-.093.533.042.533.093Z" transform="translate(-526.805 -45.037)" fill="#64a3a9"/>
      <path id="Path_104" data-name="Path 104" d="M542.658,46.717c0,.051-.239.092-.533.092s-.533-.041-.533-.092.239-.093.533-.093.533.042.533.093Z" transform="translate(-528.722 -45.037)" fill="#64a3a9"/>
      <path id="Path_105" data-name="Path 105" d="M546.707,46.717c0,.051-.239.092-.533.092s-.533-.041-.533-.092.239-.093.533-.093.533.042.533.093Z" transform="translate(-530.64 -45.037)" fill="#64a3a9"/>
      <path id="Path_106" data-name="Path 106" d="M550.757,46.717c0,.051-.239.092-.533.092s-.533-.041-.533-.092.239-.093.533-.093.533.042.533.093Z" transform="translate(-532.557 -45.037)" fill="#64a3a9"/>
      <path id="Path_107" data-name="Path 107" d="M554.807,46.717c0,.051-.239.092-.533.092s-.533-.041-.533-.092.239-.093.533-.093.533.042.533.093Z" transform="translate(-534.475 -45.037)" fill="#64a3a9"/>
      <path id="Path_108" data-name="Path 108" d="M558.857,46.717c0,.051-.238.092-.533.092s-.533-.041-.533-.092.239-.093.533-.093.533.042.533.093Z" transform="translate(-536.393 -45.037)" fill="#64a3a9"/>
      <path id="Path_109" data-name="Path 109" d="M562.907,46.717c0,.051-.239.092-.533.092s-.533-.041-.533-.092.239-.093.533-.093.533.042.533.093Z" transform="translate(-538.31 -45.037)" fill="#64a3a9"/>
      <path id="Path_110" data-name="Path 110" d="M566.957,46.717c0,.051-.239.092-.533.092s-.533-.041-.533-.092.239-.093.533-.093.533.042.533.093Z" transform="translate(-540.228 -45.037)" fill="#64a3a9"/>
      <path id="Path_111" data-name="Path 111" d="M571.007,46.717c0,.051-.239.092-.533.092s-.533-.041-.533-.092.239-.093.533-.093.533.042.533.093Z" transform="translate(-542.145 -45.037)" fill="#64a3a9"/>
      <path id="Path_112" data-name="Path 112" d="M575.057,46.717c0,.051-.239.092-.533.092s-.533-.041-.533-.092.239-.093.533-.093.533.042.533.093Z" transform="translate(-544.063 -45.037)" fill="#64a3a9"/>
      <path id="Path_113" data-name="Path 113" d="M579.107,46.717c0,.051-.239.092-.533.092s-.533-.041-.533-.092.239-.093.533-.093.533.042.533.093Z" transform="translate(-545.98 -45.037)" fill="#64a3a9"/>
      <path id="Path_114" data-name="Path 114" d="M583.157,46.717c0,.051-.239.092-.533.092s-.533-.041-.533-.092.238-.093.533-.093.533.042.533.093Z" transform="translate(-547.899 -45.037)" fill="#64a3a9"/>
      <path id="Path_115" data-name="Path 115" d="M587.207,46.717c0,.051-.239.092-.533.092s-.533-.041-.533-.092.239-.093.533-.093.533.042.533.093Z" transform="translate(-549.816 -45.037)" fill="#64a3a9"/>
      <path id="Path_116" data-name="Path 116" d="M591.12,46.853c-.023,0-.045-.051-.062-.136l.062.061a2.15,2.15,0,0,1-.4.031c-.294,0-.533-.041-.533-.092s.239-.093.533-.093a2.2,2.2,0,0,1,.4.031l.07.014-.008.048c-.016.085-.038.136-.062.136Z" transform="translate(-551.733 -45.037)" fill="#64a3a9"/>
      <path id="Path_117" data-name="Path 117" d="M591.874,50.15c-.051,0-.092-.239-.092-.533s.041-.532.092-.532.092.239.092.532-.041.533-.092.533Z" transform="translate(-552.487 -46.201)" fill="#64a3a9"/>
      <path id="Path_118" data-name="Path 118" d="M591.874,54.2c-.051,0-.092-.239-.092-.533s.041-.533.092-.533.092.239.092.533-.041.533-.092.533Z" transform="translate(-552.487 -48.119)" fill="#64a3a9"/>
      <path id="Path_119" data-name="Path 119" d="M591.874,58.25c-.051,0-.092-.239-.092-.533s.041-.533.092-.533.092.239.092.533-.041.533-.092.533Z" transform="translate(-552.487 -50.036)" fill="#64a3a9"/>
      <path id="Path_120" data-name="Path 120" d="M591.874,62.3c-.051,0-.092-.239-.092-.533s.041-.533.092-.533.092.239.092.533-.041.533-.092.533Z" transform="translate(-552.487 -51.954)" fill="#64a3a9"/>
      <path id="Path_121" data-name="Path 121" d="M591.874,66.349c-.051,0-.092-.239-.092-.533s.041-.533.092-.533.092.239.092.533-.041.533-.092.533Z" transform="translate(-552.487 -53.872)" fill="#64a3a9"/>
      <path id="Path_122" data-name="Path 122" d="M591.874,70.4c-.051,0-.092-.239-.092-.533s.041-.533.092-.533.092.239.092.533-.041.533-.092.533Z" transform="translate(-552.487 -55.789)" fill="#64a3a9"/>
      <path id="Path_123" data-name="Path 123" d="M591.874,74.449c-.051,0-.092-.239-.092-.533s.041-.533.092-.533.092.238.092.533-.041.533-.092.533Z" transform="translate(-552.487 -57.707)" fill="#64a3a9"/>
      <path id="Path_124" data-name="Path 124" d="M591.874,78.5c-.051,0-.092-.239-.092-.533s.041-.533.092-.533.092.239.092.533-.041.533-.092.533Z" transform="translate(-552.487 -59.624)" fill="#64a3a9"/>
      <path id="Path_125" data-name="Path 125" d="M591.874,82.549c-.051,0-.092-.239-.092-.533s.041-.533.092-.533.092.238.092.533-.041.533-.092.533Z" transform="translate(-552.487 -61.542)" fill="#64a3a9"/>
      <path id="Path_126" data-name="Path 126" d="M591.874,86.6c-.051,0-.092-.239-.092-.533s.041-.533.092-.533.092.239.092.533-.041.533-.092.533Z" transform="translate(-552.487 -63.46)" fill="#64a3a9"/>
      <path id="Path_127" data-name="Path 127" d="M591.874,90.649c-.051,0-.092-.239-.092-.533s.041-.533.092-.533.092.239.092.533-.041.533-.092.533Z" transform="translate(-552.487 -65.377)" fill="#64a3a9"/>
      <path id="Path_128" data-name="Path 128" d="M591.874,94.7c-.051,0-.092-.239-.092-.533s.041-.533.092-.533.092.238.092.533-.041.533-.092.533Z" transform="translate(-552.487 -67.295)" fill="#64a3a9"/>
      <path id="Path_129" data-name="Path 129" d="M591.874,98.749c-.051,0-.092-.238-.092-.533s.041-.533.092-.533.092.239.092.533-.041.533-.092.533Z" transform="translate(-552.487 -69.213)" fill="#64a3a9"/>
      <path id="Path_130" data-name="Path 130" d="M591.874,102.8c-.051,0-.092-.239-.092-.533s.041-.533.092-.533.092.238.092.533-.041.533-.092.533Z" transform="translate(-552.487 -71.13)" fill="#64a3a9"/>
      <path id="Path_131" data-name="Path 131" d="M591.874,106.849c-.051,0-.092-.239-.092-.533s.041-.533.092-.533.092.239.092.533-.041.533-.092.533Z" transform="translate(-552.487 -73.048)" fill="#64a3a9"/>
      <path id="Path_132" data-name="Path 132" d="M591.874,110.9c-.051,0-.092-.239-.092-.533s.041-.533.092-.533.092.238.092.533-.041.533-.092.533Z" transform="translate(-552.487 -74.965)" fill="#64a3a9"/>
      <path id="Path_133" data-name="Path 133" d="M591.874,114.948c-.051,0-.092-.239-.092-.533s.041-.533.092-.533.092.239.092.533-.041.533-.092.533Z" transform="translate(-552.487 -76.883)" fill="#64a3a9"/>
      <path id="Path_134" data-name="Path 134" d="M592.1,118.348h-2.813v-2.813H592.1v2.813Z" transform="translate(-551.305 -77.666)" fill="#64a3a9"/>
      <path id="Path_135" data-name="Path 135" d="M519.961,119.079h-2.813v-2.813h2.813v2.813Z" transform="translate(-517.148 -78.012)" fill="#64a3a9"/>
      <path id="Path_136" data-name="Path 136" d="M592.1,46.422h-2.813V43.609H592.1v2.813Z" transform="translate(-551.305 -43.609)" fill="#64a3a9"/>
      <path id="Path_137" data-name="Path 137" d="M519.961,46.942h-2.813V44.128h2.813v2.813Z" transform="translate(-517.148 -43.855)" fill="#64a3a9"/>
    </g>
    <path id="Path_138" data-name="Path 138" d="M448.437,147.127a3.608,3.608,0,0,1-.8,1.746,3.53,3.53,0,0,1-.794-.69l-1.545-9.508a25.683,25.683,0,0,0-2.794,1.519c-.349.175-.7.332-1.03.471a6.506,6.506,0,0,1,4.313-3.326c.611-.175,1.406-.2,1.729.34a1.657,1.657,0,0,1,.157.9,27.55,27.55,0,0,0,.515,5A10.346,10.346,0,0,1,448.437,147.127Z" transform="translate(-55.434 -14.72)" opacity="0.35" style="mix-blend-mode: overlay;isolation: isolate"/>
    <path id="Path_139" data-name="Path 139" d="M350.054,406.934C335.273,439.647,286.9,512.207,264.11,531.178c.192-2.392,1.877-5.037,3.553-6.993,14.842-17.365,29.37-35.027,42.457-53.754a438.468,438.468,0,0,0,26.1-42.273q2.894-5.356,5.649-10.782c.96-1.9,3.745-10.547,5.535-11.184A2.238,2.238,0,0,1,350.054,406.934Z" transform="translate(-32.919 -48.842)" opacity="0.24" style="mix-blend-mode: overlay;isolation: isolate"/>
    <path id="Path_140" data-name="Path 140" d="M513.245,377.127a31.54,31.54,0,0,1-11.411,4.88,4.2,4.2,0,0,1-.594-3.1c.463-3.309,2.96-5.911,5.291-8.311q7.412-7.622,14.283-15.732a30.227,30.227,0,0,0,3.239-4.348c.48-.829.821-2.1,1.318-3.091C526.132,360.7,520.186,373.05,513.245,377.127Z" transform="translate(-63.014 -41.403)" opacity="0.06" style="mix-blend-mode: overlay;isolation: isolate"/>
    <path id="Path_141" data-name="Path 141" d="M405.7,333.246c-.017.7-.087,1.4-.157,2.069a7.337,7.337,0,0,1-.856,3.178c-1.091,1.72-3.344,2.218-5.361,2.479-8.7,1.109-17.522.515-26.279-.07-.751-.052-2.078-.079-3.536-.2q2.947-.733,6-1.214Z" transform="translate(-46.299 -39.603)" opacity="0.15" style="mix-blend-mode: overlay;isolation: isolate"/>
    <path id="Path_142" data-name="Path 142" d="M420.2,549.667l-14.078.036V297.609h14.151Z" transform="translate(-50.947 -35.079)" fill="#6e7288"/>
    <circle id="Ellipse_22" data-name="Ellipse 22" cx="3.674" cy="3.674" r="3.674" transform="translate(384.185 106.842)" opacity="0.59" style="mix-blend-mode: overlay;isolation: isolate"/>
    <rect id="Rectangle_72" data-name="Rectangle 72" width="224.039" height="11.686" transform="translate(145.401 255.524)" fill="#f3bc57"/>
    <path id="Path_143" data-name="Path 143" d="M431.342,317.4c.1,2.951-.506,6.076-2.479,8.277a8.234,8.234,0,0,1-1.379,1.214c-.157-.026-.306-.052-.463-.087-4.7-.943-4.584-1.475-5.02-5.937-.777-7.8-.742-15.776-.934-23.607q-.589-24.175.323-48.341c.236-6.3.559-12.607,1.022-18.9.707,1.729,1.3,3.527,1.877,5.256,1.772,5.308,3.03,10.782,4.287,16.23,1.868,8.067,3.745,16.23,3.667,24.507-.1,10.931-3.6,21.8-2.156,32.626C430.478,311.559,431.229,314.449,431.342,317.4Z" transform="translate(-52.815 -26.499)" opacity="0.24" style="mix-blend-mode: overlay;isolation: isolate"/>
    <path id="Path_144" data-name="Path 144" d="M485.038,266.154c-.856,9.542-4.575,16.867-11.769,16.693l-6.155-.349-17.435-.978-68.3-12.231-25.327-1.458a21.65,21.65,0,0,1-2.68,1.65,18.318,18.318,0,0,1-1.737.76c-4.025,1.31-7.788,1.371-11.14-.594a9.925,9.925,0,0,0-6.094-.341l-4.374,2.89c-1.5.463-2.584.288-2.89-1.048a8.763,8.763,0,0,1,4.391-3.632c.987-.533.332-1.886-1.484-1.423l-5.116,2.672c-1.2.873-2.139,1.013-2.3-.882a13.982,13.982,0,0,1,3.772-11.35c6.88-5.4,15.375-4.7,22.158,1.2,13-2.183,51.859-3.6,88.519-2.837,1.432.017,2.855.052,4.269.087,3.187.2,4.714-.943,5.535-2.654a5.673,5.673,0,0,0,.035-1.537,15.113,15.113,0,0,0-.6-2.7c-6.015-16.5-5.291-14.894-9.219-27.92a14.565,14.565,0,0,0,3.134.873,48.516,48.516,0,0,0,5.369.62c10.721.725,27.554-.393,38.056-2.218A198.117,198.117,0,0,1,485.038,266.154Z" transform="translate(-40.333 -25.157)" fill="#ecb999"/>
    <path id="Path_145" data-name="Path 145" d="M471.6,289.018l-17.435-.978-68.3-12.231-25.327-1.458a21.651,21.651,0,0,1-2.68,1.65,7.723,7.723,0,0,1,3.789-3.946,17.134,17.134,0,0,1,7.945-1.231c3.649.079,7.29.454,10.922.812,5.4.524,10.808,1.013,16.186,1.8,5.439.786,10.843,1.868,16.239,2.942q8.7,1.742,17.374,3.51c10.084,2.078,20.15,4.243,30.164,6.661C461.876,286.888,468.162,287.831,471.6,289.018Z" transform="translate(-44.82 -31.677)" opacity="0.24" style="mix-blend-mode: overlay;isolation: isolate"/>
    <path id="Path_146" data-name="Path 146" d="M465.912,247.227a5.127,5.127,0,0,1-.393,2.41,2.088,2.088,0,0,1-1.947,1.257,15.113,15.113,0,0,0-.6-2.7c-6.015-16.5-5.291-14.894-9.219-27.92a14.565,14.565,0,0,0,3.134.873c.1.271.21.594.367,1.03,1.4,3.684,1.6,7.561,3.545,11.149.856,1.563,1.886,3.029,2.715,4.6A20.813,20.813,0,0,1,465.912,247.227Z" transform="translate(-56.993 -25.262)" opacity="0.24" style="mix-blend-mode: overlay;isolation: isolate"/>
    <path id="Path_147" data-name="Path 147" d="M533.465,307c-2.4-8.643-1.379-18.046-.864-27.108.48-8.469.463-16.955.445-25.441a83.019,83.019,0,0,0-.733-13.262c-.733-4.557-2.226-8.949-3.4-13.4a99.273,99.273,0,0,1-3.108-20.045c-.253-4.8-.821-10.852.375-15.724,1.074,2.829,2.008,5.718,2.811,8.635,3.658,13.236,4.741,27.047,5.326,40.772A588.943,588.943,0,0,1,533.465,307Z" transform="translate(-66.095 -21.675)" opacity="0.24" style="mix-blend-mode: overlay;isolation: isolate"/>
    <path id="Path_148" data-name="Path 148" d="M465.581,144.882a16.806,16.806,0,0,1-7.019,3.78c-2.13.559-4.4.681-6.382,1.641-2.68,1.31-4.453,3.964-6.941,5.6a15.741,15.741,0,0,1-7.369,2.252,28.111,28.111,0,0,1,6.426-7.177,29,29,0,0,1,11.856-5.3,37.4,37.4,0,0,1,4.383-.664A40.59,40.59,0,0,1,465.581,144.882Z" transform="translate(-54.977 -15.688)" opacity="0.24" style="mix-blend-mode: overlay;isolation: isolate"/>
    <path id="Path_149" data-name="Path 149" d="M456.575,217.426a2.8,2.8,0,0,1-3.009-1.069,7.952,7.952,0,0,1-1.286-3.131,81.478,81.478,0,0,1-2.561-15.739c-.065-1.413-.013-3.656,1.661-3.97.727,1.507.228,3.781.389,5.486a41.393,41.393,0,0,0,1.18,6.34C453.214,206.372,456.687,217.384,456.575,217.426Z" transform="translate(-56.479 -21.865)" opacity="0.24" style="mix-blend-mode: overlay;isolation: isolate"/>
  </g>
</svg>
