<svg xmlns="http://www.w3.org/2000/svg" width="108.297" height="100.536" viewBox="0 0 108.297 100.536">
  <g id="Quality_assurance" data-name="Quality assurance" transform="translate(-12.6 -35.4)">
    <path id="Path_230" data-name="Path 230" d="M131.863,85.2,121.747,97.627a4.771,4.771,0,0,0,.7,6.707l3.32,2.692a4.771,4.771,0,0,1,.7,6.707L98.419,148.074a4.751,4.751,0,0,1-7.043.359L73.094,130.174a4.752,4.752,0,0,0-6.729,0L63,133.539l28.914,28.869a4.761,4.761,0,0,0,7.066-.381l50.358-62.358a.294.294,0,0,0-.045-.426Z" transform="translate(-39.095 -38.629)" fill="#f69513"/>
    <path id="Path_231" data-name="Path 231" d="M89.432,161.84a1.856,1.856,0,0,1-1.279-.516L55.516,128.71A1.778,1.778,0,0,1,55,127.431a1.816,1.816,0,0,1,.516-1.279l5.339-5.339a1.792,1.792,0,0,1,2.535,2.535l-4.06,4.06L89.3,157.332l51.5-63.749-10.924-8.815a1.8,1.8,0,1,1,2.266-2.8L144.455,91.9a1.724,1.724,0,0,1,.65,1.211,1.881,1.881,0,0,1-.381,1.323L90.845,161.167a1.815,1.815,0,0,1-1.3.673ZM87.592,127.97a1.856,1.856,0,0,1-1.279-.516l-13.526-13.5-4.082,4.082a1.792,1.792,0,0,1-2.535-2.535l5.361-5.361a1.8,1.8,0,0,1,2.535,0l13.391,13.369,36.787-45.513a1.8,1.8,0,1,1,2.8,2.266L89.005,127.3a1.815,1.815,0,0,1-1.3.673Z" transform="translate(-32.889 -32.522)"/>
    <path id="Path_232" data-name="Path 232" d="M36.354,125.169a1.8,1.8,0,0,1-1.794,1.794H19.98a1.794,1.794,0,1,1,0-3.589H34.56A1.8,1.8,0,0,1,36.354,125.169Zm-.673-36.114a1.8,1.8,0,0,0-1.794-1.794H14.394a1.794,1.794,0,1,0,0,3.589h19.47A1.79,1.79,0,0,0,35.682,89.055Zm12.9-51.636A2.019,2.019,0,1,1,46.561,35.4,2.025,2.025,0,0,1,48.579,37.419Zm6.729,0A2.019,2.019,0,1,1,53.29,35.4,2.025,2.025,0,0,1,55.309,37.419Zm2.669,0A2.019,2.019,0,1,1,60,39.438,2.025,2.025,0,0,1,57.978,37.419ZM39.607,35.624H19.98a1.8,1.8,0,0,0-1.794,1.794V77.256a1.794,1.794,0,1,0,3.589,0V39.213H39.607a1.794,1.794,0,1,0,0-3.589Zm27.007,3.589h19.65a1.794,1.794,0,0,0,0-3.589H66.614a1.794,1.794,0,1,0,0,3.589ZM119.1,132.347H60.243a1.794,1.794,0,1,0,0,3.589H119.1a1.794,1.794,0,0,0,0-3.589Zm0-8.972H75.183a1.794,1.794,0,1,0,0,3.589H119.1a1.794,1.794,0,1,0,0-3.589ZM84.469,116.2a1.8,1.8,0,0,0,1.794,1.794H119.1a1.794,1.794,0,1,0,0-3.589H86.263A1.785,1.785,0,0,0,84.469,116.2Z"/>
    <g id="Group_35" data-name="Group 35" transform="translate(25.991 43.027)">
      <path id="Path_233" data-name="Path 233" d="M75.71,76.219h0a3.408,3.408,0,0,1-3.41-3.41h0a3.408,3.408,0,0,1,3.41-3.41h0a3.408,3.408,0,0,1,3.41,3.41h0A3.408,3.408,0,0,1,75.71,76.219Zm14.625-3.41h0a3.408,3.408,0,0,0-3.41-3.41h0a3.408,3.408,0,0,0-3.41,3.41h0a3.408,3.408,0,0,0,3.41,3.41h0A3.408,3.408,0,0,0,90.335,72.81Zm11.215,0h0a3.408,3.408,0,0,0-3.41-3.41h0a3.408,3.408,0,0,0-3.41,3.41h0a3.408,3.408,0,0,0,3.41,3.41h0A3.408,3.408,0,0,0,101.55,72.81ZM90.335,84.025h0a3.408,3.408,0,0,0-3.41-3.41h0a3.408,3.408,0,0,0-3.41,3.41h0a3.408,3.408,0,0,0,3.41,3.41h0A3.408,3.408,0,0,0,90.335,84.025Zm-11.216,0h0a3.408,3.408,0,0,0-3.41-3.41h0a3.408,3.408,0,0,0-3.41,3.41h0a3.408,3.408,0,0,0,3.41,3.41h0A3.408,3.408,0,0,0,79.119,84.025Zm0,11.215h0a3.408,3.408,0,0,0-3.41-3.41h0a3.408,3.408,0,0,0-3.41,3.41h0a3.408,3.408,0,0,0,3.41,3.41h0A3.408,3.408,0,0,0,79.119,95.241Z" transform="translate(-72.3 -69.4)" fill="#f69513"/>
      <path id="Path_234" data-name="Path 234" d="M390.361,235.2v28.061H362.3Z" transform="translate(-297.25 -198.009)" fill="#f69513"/>
    </g>
  </g>
</svg>
